<?xml version="1.0" encoding="UTF-8"?>
<!DOCTYPE svg PUBLIC "-//W3C//DTD SVG 1.1//EN" "http://www.w3.org/Graphics/SVG/1.1/DTD/svg11.dtd">
<!-- Creator: CorelDRAW -->
<svg xmlns="http://www.w3.org/2000/svg" xml:space="preserve" width="6.82666in" height="6.82666in" style="shape-rendering:geometricPrecision; text-rendering:geometricPrecision; image-rendering:optimizeQuality; fill-rule:evenodd; clip-rule:evenodd"
viewBox="0 0 6.82666 6.82666"
 xmlns:xlink="http://www.w3.org/1999/xlink">
 <defs>
  <style type="text/css">
   <![CDATA[
    .fil2 {fill:none}
    .fil0 {fill:#1e293b}
    .fil1 {fill:#FFFFFE;fill-rule:nonzero}
   ]]>
  </style>
 </defs>
 <rect class="fil0" width="6.82666" height="6.82666"/>
 <g id="Layer_x0020_1">
  <metadata id="CorelCorpID_0Corel-Layer"/>
  <path class="fil1" d="M1.21042 5.04974l2.81365 -2.81365 0.0754134 -0.0754134 0.0754213 0.0754134 0.485114 0.48511 0.0754173 0.0754173 -0.0754173 0.0754173 -2.81365 2.81365 -0.0329173 0.0220827 -0.810949 0.353319 -0.234087 0.101988 0.0924213 -0.237823 0.325835 -0.838433 0.023748 -0.0370827zm2.88907 -2.5874l-2.72296 2.72296 -0.224933 0.578799 0.557657 -0.242965 2.72452 -2.72452 -0.33428 -0.334276z"/>
  <path class="fil1" d="M4.21565 2.04451l0.990425 -0.990425 3.93701e-006 -3.93701e-006c0.0875315,-0.0875315 0.202799,-0.131303 0.317969,-0.131303 0.115177,0 0.230433,0.0437717 0.317969,0.131303l3.93701e-006 3.93701e-006 7.87402e-006 1.1811e-005c0.0875315,0.0875315 0.131303,0.202803 0.131303,0.317969 0,0.115169 -0.0437717,0.230437 -0.131307,0.317972l-0.990421 0.990421 -0.150835 -0.150835 0.990421 -0.990421c0.0458661,-0.0458661 0.0688031,-0.106465 0.0688031,-0.167138 0,-0.0606732 -0.022937,-0.121276 -0.0688031,-0.167138l-7.87402e-006 -1.1811e-005c-0.0458661,-0.0458622 -0.106465,-0.0687992 -0.167134,-0.0687992 -0.0606732,0 -0.121272,0.022937 -0.167134,0.0687992l-3.93701e-006 3.93701e-006 -0.990425 0.990425 -0.150835 -0.150835z"/>
  <path class="fil1" d="M3.14396 2.53406c-0.0416496,0.0416496 -0.0416496,0.109185 0,0.150835 0.0416496,0.0416496 0.109185,0.0416496 0.150835,0l1.74641 -1.7464c0.0416496,-0.0416496 0.0416496,-0.109185 0,-0.150835 -0.0416496,-0.0416496 -0.109185,-0.0416496 -0.150835,0l-1.74641 1.7464z"/>
  <rect class="fil2" width="6.82666" height="6.82666"/>
 </g>
</svg>
